<svg xmlns="http://www.w3.org/2000/svg" viewBox="0 0 512 512" width="100" height="100">
  <defs>
    <linearGradient id="grad1" x1="0%" y1="0%" x2="100%" y2="0%">
      <stop offset="0%" style="stop-color:#FF004F;stop-opacity:1" />
      <stop offset="100%" style="stop-color:#00F2EA;stop-opacity:1" />
    </linearGradient>
  </defs>
  <path fill="url(#grad1)" d="M256 0C114.6 0 0 114.6 0 256s114.6 256 256 256 256-114.6 256-256S397.4 0 256 0zm0 464c-114.7 0-208-93.3-208-208S141.3 48 256 48s208 93.3 208 208-93.3 208-208 208z"/>
  <path fill="#FF004F" d="M350 150.8v84.9c-7.7-1.5-15.7-2.3-23.8-2.3-67.7 0-122.5 54.8-122.5 122.5 0 24.6 7.3 47.5 19.8 66.7-4.9-1.1-10-1.7-15.2-1.7-37.3 0-67.5 30.2-67.5 67.5H78.2c0-67.7 54.8-122.5 122.5-122.5 8.1 0 16.1 0.8 23.8 2.3v88c0 6.3 5.1 11.5 11.5 11.5h62.6c6.3 0 11.5-5.1 11.5-11.5V150.8c0-6.3-5.1-11.5-11.5-11.5h-62.6c-6.3 0-11.5 5.1-11.5 11.5"/>
  <path fill="#00F2EA" d="M202 190.5h-23.8c-8.1 0-16.1-0.8-23.8-2.3v-33.5c0-6.3-5.1-11.5-11.5-11.5H80.7c-6.3 0-11.5 5.1-11.5 11.5v67.2c0 6.3 5.1 11.5 11.5 11.5h62.6c6.3 0 11.5-5.1 11.5-11.5V194c7.7 1.5 15.7 2.3 23.8 2.3 37.3 0 67.5 30.2 67.5 67.5h62.6c0-67.7-54.8-122.5-122.5-122.5z"/>
</svg> 