<svg xmlns="http://www.w3.org/2000/svg" viewBox="0 0 300 300" width="300" height="300">
  <!-- 背景 -->
  <rect width="300" height="300" fill="#F5F5F5" />
  
  <!-- 裙子轮廓 -->
  <path d="M150,50 C180,50 200,70 200,90 L200,120 L220,280 L80,280 L100,120 L100,90 C100,70 120,50 150,50 Z" 
        fill="#FADADD" stroke="#FF6699" stroke-width="2" />
  
  <!-- 裙子腰带 -->
  <path d="M100,120 L200,120" stroke="#FF6699" stroke-width="4" />
  
  <!-- 花纹 -->
  <circle cx="130" cy="180" r="6" fill="#FF6699" />
  <circle cx="170" cy="150" r="6" fill="#FF6699" />
  <circle cx="150" cy="200" r="6" fill="#FF6699" />
  <circle cx="190" cy="220" r="6" fill="#FF6699" />
  <circle cx="120" cy="240" r="6" fill="#FF6699" />
  
  <!-- 领口 -->
  <path d="M130,50 Q150,70 170,50" fill="none" stroke="#FF6699" stroke-width="2" />
  
  <!-- 袖子 -->
  <path d="M100,90 C90,100 85,110 80,120" fill="none" stroke="#FF6699" stroke-width="2" />
  <path d="M200,90 C210,100 215,110 220,120" fill="none" stroke="#FF6699" stroke-width="2" />
</svg> 